<svg xmlns="http://www.w3.org/2000/svg" width="22.031" height="20" viewBox="0 0 22.031 20">
  <defs>
    <style>
      .cls-1 {
        fill: #c9b6a6;
        fill-rule: evenodd;
      }
    </style>
  </defs>
  <path class="cls-1" d="M756.037,2061.05v6.44l3.277,3.24,1.395-1.42-2.685-2.66v-5.6h-1.987Zm-4.926,4.91H749.08a7.982,7.982,0,1,1,7.915,9.01,7.921,7.921,0,0,1-5.489-2.2,7.471,7.471,0,0,1-.869-0.97l-1.584,1.21a9.766,9.766,0,0,0,1.09,1.21,9.889,9.889,0,0,0,6.852,2.74,10,10,0,1,0-9.92-11h-2.123l3.08,3.99Z" transform="translate(-744.938 -2056.97)"/>
</svg>
