<svg xmlns="http://www.w3.org/2000/svg" width="13.687" height="8.406" viewBox="0 0 13.687 8.406">
  <defs>
    <style>
      .cls-1 {
        fill: #103683;
        fill-rule: evenodd;
      }
    </style>
  </defs>
  <path id="Shape_353_copy_20" data-name="Shape 353 copy 20" class="cls-1" d="M342.753,915.8l0.021-.024-3.815-3.978a0.609,0.609,0,0,0-.9,0l-0.019.021a0.712,0.712,0,0,0,0,.962l2.266,2.325H329.72a0.66,0.66,0,0,0-.638.679v0.029a0.661,0.661,0,0,0,.638.68h10.585l-2.266,2.325a0.711,0.711,0,0,0,0,.961l0.019,0.021a0.612,0.612,0,0,0,.9,0l3.816-3.978Z" transform="translate(-329.094 -911.594)"/>
</svg>
