<svg xmlns="http://www.w3.org/2000/svg" width="47.25" height="49" viewBox="0 0 47.25 49">
  <defs>
    <style>
      .cls-1 {
        fill: #55caf5;
        fill-rule: evenodd;
      }
    </style>
  </defs>
  <path class="cls-1" d="M315.134,2749.29a1.294,1.294,0,0,0,.34-0.05,1.579,1.579,0,0,1,1.545.4l0.472,0.47a1.578,1.578,0,0,1,.4,1.52,1.215,1.215,0,0,0,.121.93,1.282,1.282,0,0,0,1.064.62,1.234,1.234,0,0,0,1.184-.91,4.046,4.046,0,0,0-.48-3.19l4.945-4.95a7.866,7.866,0,1,0-1.736-1.73l-4.945,4.94a4.063,4.063,0,0,0-2.145-.62,4.136,4.136,0,0,0-1.106.16A1.229,1.229,0,0,0,315.134,2749.29Zm14.227-6.11a5.415,5.415,0,1,1,3.834-1.58A5.387,5.387,0,0,1,329.361,2743.18Zm-22.949,13.12a1.225,1.225,0,0,0-1.735,0l-13.909,13.91a2.624,2.624,0,0,0,0,3.71l2.449,2.45a2.621,2.621,0,0,0,3.711,0l13.908-13.91a1.233,1.233,0,0,0,0-1.74Zm-11.34,18.39a0.186,0.186,0,0,1-.12-0.05l-2.448-2.45a0.19,0.19,0,0,1-.05-0.12,0.155,0.155,0,0,1,.05-0.12l13.041-13.05,2.689,2.69-13.041,13.05A0.186,0.186,0,0,1,295.072,2774.69Zm17.7-25.82a4.069,4.069,0,0,0-2.906-1.21,4.2,4.2,0,0,0-2.131.59l-5.124-5.12a3.973,3.973,0,0,0-2.23-1.13l-6.31-.98a0.174,0.174,0,0,1-.117-0.07,0.181,0.181,0,0,1-.022-0.14l2.664-10.27a1.23,1.23,0,0,0-.878-1.5,1.1,1.1,0,0,0-.312-0.04,1.226,1.226,0,0,0-1.185.92l-2.665,10.27a2.627,2.627,0,0,0,2.141,3.26l6.309,0.97a1.6,1.6,0,0,1,.87.44l5.124,5.13a4.151,4.151,0,0,0,.613,5.04l22.176,22.19a2.687,2.687,0,0,0,1.9.78,2.655,2.655,0,0,0,1.9-.79l2.368-2.36a2.7,2.7,0,0,0,0-3.8Zm20.508,24.08a0.237,0.237,0,0,1-.067.16l-2.367,2.37a0.22,0.22,0,0,1-.322,0l-13.883-13.89,2.689-2.69,13.883,13.89A0.221,0.221,0,0,1,333.283,2772.95Zm-18.89-18.99,0.735,0.73-2.689,2.69-0.735-.73Zm-0.219,5.16,2.689-2.69,0.735,0.73-2.689,2.69Zm-5.823-8.21,0.31-.31a1.657,1.657,0,0,1,1.189-.49,1.7,1.7,0,0,1,1.19.49l1.618,1.62-2.69,2.69-1.617-1.62A1.687,1.687,0,0,1,308.351,2750.91Z" transform="translate(-290 -2729)"/>
</svg>
