<svg xmlns="http://www.w3.org/2000/svg" width="19.34" height="20.031" viewBox="0 0 19.34 20.031">
  <defs>
    <style>
      .cls-1 {
        fill: #fff;
        fill-rule: evenodd;
      }
    </style>
  </defs>
  <path class="cls-1" d="M1387.06,76.142a1.389,1.389,0,0,0-2.01,0l-1,1.04a1.39,1.39,0,0,1-2.01,0h0l-6.02-6.234a1.515,1.515,0,0,1,0-2.079l1.01-1.04a1.514,1.514,0,0,0,0-2.077h0l-2.01-2.079a1.39,1.39,0,0,0-2.01,0h0l-2.51,2.6a1.391,1.391,0,0,0-.3,1.225,25.486,25.486,0,0,0,5.82,9.685,24.265,24.265,0,0,0,9.36,6.028,1.264,1.264,0,0,0,1.18-.313l2.51-2.6a1.515,1.515,0,0,0,0-2.078Z" transform="translate(-1370.16 -63.25)"/>
</svg>
