<svg xmlns="http://www.w3.org/2000/svg" width="47.44" height="49" viewBox="0 0 47.44 49">
  <defs>
    <style>
      .cls-1 {
        fill: #55caf5;
        fill-rule: evenodd;
      }
    </style>
  </defs>
  <path class="cls-1" d="M1056.45,2742.14a1.055,1.055,0,0,0-.25.02,1.212,1.212,0,0,0-.77.52,1.275,1.275,0,0,0-.18.93c1.23,6.08-3.06,12.84-4.4,14.77a4.04,4.04,0,0,0-.69,1.82c-1.46,11.96-3.83,17.34-5.04,17.34-1.45,0-5.52-2.87-5.78-12.1a4.823,4.823,0,0,0-2.78-4.37,2.788,2.788,0,0,0-1.33-.33,2.817,2.817,0,0,0-1.33.33,4.836,4.836,0,0,0-2.78,4.36c-0.25,9.24-4.32,12.11-5.78,12.11-1.21,0-3.57-5.38-5.03-17.34a4.04,4.04,0,0,0-.69-1.82c-1.36-1.95-7.86-12.02-2.54-18.83,2.25-2.89,4.53-4.23,7.17-4.23,2.43,0,4.98,1.13,7.67,2.36a11.821,11.821,0,0,1-3.17.47,1.23,1.23,0,0,0,0,2.46,18.558,18.558,0,0,0,6.97-1.68c0.88-.37,1.75-0.76,2.61-1.15,2.77-1.26,5.38-2.46,7.9-2.46a7.073,7.073,0,0,1,2.01.28,1.257,1.257,0,0,0,.33.05,1.23,1.23,0,0,0,.34-2.41,9.837,9.837,0,0,0-2.67-.37c-3.06,0-6.03,1.36-8.91,2.67-0.7.32-1.39,0.64-2.1,0.94-0.7-.3-1.41-0.62-2.09-0.94-2.89-1.32-5.87-2.68-8.93-2.68-3.37,0-6.33,1.69-9.05,5.17-6.22,7.97.31,18.67,2.46,21.76a1.466,1.466,0,0,1,.27.71c1.09,8.89,3.26,19.5,7.45,19.5,2.55,0,7.91-3.54,8.22-14.54a2.392,2.392,0,0,1,1.45-2.21,0.442,0.442,0,0,1,.22-0.05,0.419,0.419,0,0,1,.22.05,2.4,2.4,0,0,1,1.46,2.26c0.31,10.95,5.66,14.49,8.21,14.49,4.19,0,6.37-10.61,7.45-19.5a1.7,1.7,0,0,1,.27-0.71c1.49-2.13,6.22-9.63,4.8-16.67A1.227,1.227,0,0,0,1056.45,2742.14Zm2.29-5.76a4.14,4.14,0,0,1-4.12-4.15,1.22,1.22,0,1,0-2.44,0,4.133,4.133,0,0,1-4.12,4.15,1.225,1.225,0,0,0,0,2.45,4.133,4.133,0,0,1,4.12,4.15,1.22,1.22,0,1,0,2.44,0,4.14,4.14,0,0,1,4.12-4.15A1.225,1.225,0,0,0,1058.74,2736.38Zm-3.81,1.22a6.622,6.622,0,0,0-1.53,1.55,6.622,6.622,0,0,0-1.53-1.55A1.53,1.53,0,1,1,1054.93,2737.6Zm-11.38,10.67a1.227,1.227,0,0,0-1.22,1.23,4.14,4.14,0,0,1-4.12,4.15,1.225,1.225,0,0,0,0,2.45,4.146,4.146,0,0,1,4.12,4.15,1.22,1.22,0,1,0,2.44,0,4.14,4.14,0,0,1,4.12-4.15,1.225,1.225,0,0,0,0-2.45,4.133,4.133,0,0,1-4.12-4.15A1.227,1.227,0,0,0,1043.55,2748.27Zm1.53,6.61a6.394,6.394,0,0,0-1.53,1.54,6.394,6.394,0,0,0-1.53-1.54,6.622,6.622,0,0,0,1.53-1.55A6.622,6.622,0,0,0,1045.08,2754.88Zm-17.69-11.73a1.215,1.215,0,1,0-2.43,0,4.148,4.148,0,0,1-4.12,4.16,1.225,1.225,0,0,0,0,2.45,4.14,4.14,0,0,1,4.12,4.15,1.215,1.215,0,1,0,2.43,0,4.14,4.14,0,0,1,4.12-4.15,1.225,1.225,0,0,0,0-2.45A4.148,4.148,0,0,1,1027.39,2743.15Zm0.32,5.38a6.664,6.664,0,0,0-1.54,1.55,6.622,6.622,0,0,0-1.53-1.55,6.394,6.394,0,0,0,1.53-1.54A6.435,6.435,0,0,0,1027.71,2748.53Z" transform="translate(-1012.53 -2731)"/>
</svg>
