<svg xmlns="http://www.w3.org/2000/svg" width="13.687" height="8.406" viewBox="0 0 13.687 8.406">
  <defs>
    <style>
      .cls-1 {
        fill: #103683;
        fill-rule: evenodd;
      }
    </style>
  </defs>
  <path id="Shape_353_copy_21" data-name="Shape 353 copy 21" class="cls-1" d="M269.247,915.2l-0.021.024,3.815,3.978a0.609,0.609,0,0,0,.9,0l0.019-.021a0.712,0.712,0,0,0,0-.962l-2.266-2.325h10.586a0.66,0.66,0,0,0,.637-0.679v-0.029a0.66,0.66,0,0,0-.637-0.68H271.7l2.266-2.325a0.711,0.711,0,0,0,0-.961l-0.019-.021a0.612,0.612,0,0,0-.9,0l-3.816,3.979Z" transform="translate(-269.219 -911)"/>
</svg>
