<svg xmlns="http://www.w3.org/2000/svg" width="140" height="19.06" viewBox="0 0 140 19.06">
  <defs>
    <style>
      .cls-1 {
        fill: #c9b6a6;
        fill-rule: evenodd;
      }
    </style>
  </defs>
  <path id="Shape_1_copy" data-name="Shape 1 copy" class="cls-1" d="M1490.99,2078.46a4,4,0,0,1-3.72-2.78,3.942,3.942,0,0,0,1.71-.05,0.11,0.11,0,0,0,.06-0.03,3.975,3.975,0,0,1-2.59-1.83,3.869,3.869,0,0,1-.59-2.13,3.992,3.992,0,0,0,1.78.49,4.022,4.022,0,0,1-1.64-2.43,3.918,3.918,0,0,1,.42-2.9,11.439,11.439,0,0,0,8.24,4.18c-0.02-.16-0.04-0.3-0.06-0.44a3.912,3.912,0,0,1,.58-2.61,4,4,0,0,1,6.21-.7,0.2,0.2,0,0,0,.21.07,8.05,8.05,0,0,0,2.33-.9c0.02-.01.03-0.02,0.05-0.03h0.03a4.116,4.116,0,0,1-1.71,2.18,7.773,7.773,0,0,0,2.22-.6l0.02,0.02c-0.15.2-.3,0.4-0.46,0.6a7.9,7.9,0,0,1-1.45,1.38,0.136,0.136,0,0,0-.07.13,11.647,11.647,0,0,1-.07,1.77,12,12,0,0,1-1.03,3.57,11.538,11.538,0,0,1-2.16,3.15,10.721,10.721,0,0,1-5.49,3.07,12.009,12.009,0,0,1-2.23.26,11.27,11.27,0,0,1-6.39-1.72,0.642,0.642,0,0,1-.1-0.06,8.118,8.118,0,0,0,4-.55A7.934,7.934,0,0,0,1490.99,2078.46Zm-58.07-10.41c0.55-.02,1.11-0.01,1.67-0.01h0.23v-2.91c-0.29-.03-0.61-0.07-0.92-0.09-0.57-.03-1.15-0.05-1.72-0.04a4.205,4.205,0,0,0-2.43.75,3.638,3.638,0,0,0-1.46,2.43,8.775,8.775,0,0,0-.1,1.25c-0.02.66,0,1.31,0,1.96v0.25h-2.79v3.25h2.77v8.18h3.38v-8.16h2.76c0.14-1.09.28-2.16,0.42-3.27h-3.2s0.01-1.62.02-2.32A1.2,1.2,0,0,1,1432.92,2068.05Zm128.44,15.51h-10.78a4.017,4.017,0,0,1-4.05-3.97v-11.12a4.015,4.015,0,0,1,4.05-3.96h10.78a4.015,4.015,0,0,1,4.05,3.96v11.12a4.017,4.017,0,0,1-4.05,3.97m-10.78-17.42a2.385,2.385,0,0,0-2.42,2.33v11.12a2.378,2.378,0,0,0,2.42,2.33h10.78a2.378,2.378,0,0,0,2.42-2.33v-11.12a2.385,2.385,0,0,0-2.42-2.33h-10.78Zm5.39,12.84a4.945,4.945,0,1,1,4.94-4.95,4.944,4.944,0,0,1-4.94,4.95m0-8.26a3.31,3.31,0,1,0,3.31,3.31A3.312,3.312,0,0,0,1555.97,2070.72Zm6.45-1.88a1.155,1.155,0,1,1-1.15-1.15,1.159,1.159,0,0,1,1.15,1.15" transform="translate(-1425.41 -2064.5)"/>
</svg>
