<svg xmlns="http://www.w3.org/2000/svg" width="18.313" height="21.97" viewBox="0 0 18.313 21.97">
  <defs>
    <style>
      .cls-1 {
        fill: #c9b6a6;
        fill-rule: evenodd;
      }
    </style>
  </defs>
  <path id="Shape_394_copy" data-name="Shape 394 copy" class="cls-1" d="M284.935,2058.72a9.147,9.147,0,0,0-12.952,12.92l5.489,5.93a1.37,1.37,0,0,0,1.984.01l5.479-5.92A9.147,9.147,0,0,0,284.935,2058.72Zm-1.308,11.66-5.162,5.59-5.174-5.61A7.317,7.317,0,1,1,283.627,2070.38Zm-5.164-8.85a3.66,3.66,0,1,0,3.663,3.66A3.64,3.64,0,0,0,278.463,2061.53Zm0,5.49h0a1.83,1.83,0,1,1,1.832-1.83,1.83,1.83,0,0,1-1.832,1.83Z" transform="translate(-269.312 -2056.03)"/>
</svg>
