<svg xmlns="http://www.w3.org/2000/svg" width="39.85" height="49" viewBox="0 0 39.85 49">
  <defs>
    <style>
      .cls-1 {
        fill: #55caf5;
        fill-rule: evenodd;
      }
    </style>
  </defs>
  <path class="cls-1" d="M1404.45,2753.07a1.133,1.133,0,0,0-.36-0.06,1.233,1.233,0,0,0-1.18.88,22.139,22.139,0,0,1-2.98,6,3.336,3.336,0,0,0-.59,1.53c-1.2,9.76-3.09,13.04-3.64,13.12-1.06,0-4.03-2.14-4.22-9.05a4.013,4.013,0,0,0-2.32-3.62,2.564,2.564,0,0,0-2.33,0,3.993,3.993,0,0,0-2.32,3.61c-0.2,6.92-3.16,9.06-4.22,9.06-0.55-.08-2.44-3.36-3.64-13.12a3.5,3.5,0,0,0-.59-1.53,22.452,22.452,0,0,1-2.99-6.02,1.242,1.242,0,0,0-1.18-.88,1.024,1.024,0,0,0-.35.05,1.168,1.168,0,0,0-.73.59,1.187,1.187,0,0,0-.1.94,24.847,24.847,0,0,0,3.33,6.73,0.86,0.86,0,0,1,.16.42c1.27,10.28,3.26,15.28,6.09,15.28,2.46,0,6.44-3.11,6.68-11.49a1.522,1.522,0,0,1,1.07-1.46,1.605,1.605,0,0,1,.98,1.51c0.24,8.33,4.22,11.44,6.68,11.44,2.83,0,4.82-5,6.08-15.28a0.97,0.97,0,0,1,.16-0.42,24.7,24.7,0,0,0,3.33-6.7,1.23,1.23,0,0,0-.1-0.94A1.176,1.176,0,0,0,1404.45,2753.07Zm2.98-18.45a1.245,1.245,0,0,0-.74-0.25,1.232,1.232,0,0,0-.57.14l-4.95,2.57-2.37-7.17a1.231,1.231,0,0,0-2.07-.46l-4.41,4.7-3.26-5.57a1.238,1.238,0,0,0-1.07-.58,1.209,1.209,0,0,0-1.06.58l-3.27,5.57-4.41-4.7a1.214,1.214,0,0,0-1.16-.36,1.244,1.244,0,0,0-.9.82l-2.37,7.17-4.95-2.57a1.232,1.232,0,0,0-1.78,1.34l2.29,10.81a3.081,3.081,0,0,0-1.85,2.82,3.182,3.182,0,0,0,3.22,3.14h32.49a3.189,3.189,0,0,0,3.22-3.14,3.1,3.1,0,0,0-1.85-2.82l2.28-10.81A1.224,1.224,0,0,0,1407.43,2734.62Zm-30.4,3.61,1.85-5.59,3.49,3.72-2.09,3.56Zm3.72,4.54a1.259,1.259,0,0,0,1.07-.6l6.17-10.54,6.18,10.54a1.242,1.242,0,0,0,1.06.6,1.224,1.224,0,0,0,.57-0.13l9.15-4.75-1.79,8.45h-30.33l-1.79-8.45,9.15,4.75A1.212,1.212,0,0,0,1380.75,2742.77Zm14.95-2.85-2.08-3.56,3.49-3.72,1.84,5.59Zm-23.95,8.88h32.49a0.684,0.684,0,1,1,0,1.36h-32.49A0.684,0.684,0,1,1,1371.75,2748.8Z" transform="translate(-1368.09 -2728)"/>
</svg>
