<svg xmlns="http://www.w3.org/2000/svg" width="47.125" height="49" viewBox="0 0 47.125 49">
  <defs>
    <style>
      .cls-1 {
        fill: #55caf5;
        fill-rule: evenodd;
      }
    </style>
  </defs>
  <path class="cls-1" d="M695,2741.39c-2.166-2.73-4.551-4.06-7.289-4.06a10.787,10.787,0,0,0-3.457.62,1.224,1.224,0,0,0,.385,2.39,1.27,1.27,0,0,0,.386-0.06,8.721,8.721,0,0,1,2.691-.5c1.952,0,3.65.99,5.345,3.13,4,5.06-.949,12.61-1.983,14.08a3.326,3.326,0,0,0-.587,1.52c-1.2,9.68-3.081,12.94-3.625,13.03-1.053,0-4-2.13-4.2-8.98a3.955,3.955,0,0,0-2.315-3.6,2.566,2.566,0,0,0-2.331,0,3.947,3.947,0,0,0-2.316,3.59c-0.193,6.86-3.145,8.99-4.193,8.99-0.549-.09-2.431-3.35-3.629-13.03a1.235,1.235,0,0,0-1.219-1.08l-0.157.01a1.229,1.229,0,0,0-.822.47,1.188,1.188,0,0,0-.253.9c1.266,10.22,3.253,15.19,6.075,15.19,2.452,0,6.43-3.09,6.659-11.3l0.009-.12a1.507,1.507,0,0,1,1.049-1.44,1.554,1.554,0,0,1,.974,1.49c0.239,8.28,4.216,11.37,6.667,11.37,2.785,0,4.829-5.11,6.075-15.19a0.925,0.925,0,0,1,.157-0.41C694.8,2755.99,699.962,2747.66,695,2741.39Zm-19.039,14.77a4,4,0,0,0,3.643-3.98,4.082,4.082,0,0,0-.055-0.66,4.017,4.017,0,0,0,1.918-3.4,3.945,3.945,0,0,0-.412-1.76,4.006,4.006,0,0,0,.783-2.37,3.6,3.6,0,0,0-.842-2.39,4.217,4.217,0,0,0,.631-2.32,3.658,3.658,0,0,0-3.468-3.74H671.11a16.009,16.009,0,0,0,.169-4.09c-0.339-3.75-2.239-6.34-4.728-6.44-0.167-.01-0.326-0.01-0.477-0.01a5.158,5.158,0,0,0-2.631.51,1.217,1.217,0,0,0-.558,1.32,17.528,17.528,0,0,1,.582,5.04c-0.436,1.91-2.1,3.77-3.564,5.41s-2.623,2.93-2.623,4.3v11.43a3.184,3.184,0,0,0,3.194,3.17h15.2A2.084,2.084,0,0,0,675.965,2756.16Zm-10.09-23.75a14.753,14.753,0,0,0-.332-4.93,4.686,4.686,0,0,1,.557-0.02h0.351c1.138,0.05,2.156,1.86,2.368,4.21a13.689,13.689,0,0,1-.435,4.77,1.232,1.232,0,0,0,.2,1.07,1.252,1.252,0,0,0,.985.48h8.591a1.253,1.253,0,0,1,1,1.29,1.472,1.472,0,0,1-.462,1.25,1.492,1.492,0,0,0-.588,1.32,1.458,1.458,0,0,0,.81,1.18,1.028,1.028,0,0,1,.451.96,1.521,1.521,0,0,1-.633,1.24,1.229,1.229,0,0,0-.164,1.83,1.542,1.542,0,0,1,.426,1.06,1.558,1.558,0,0,1-1.238,1.51,1.233,1.233,0,0,0-.864.69,1.219,1.219,0,0,0,.039,1.1,1.539,1.539,0,0,1,.2.76,1.562,1.562,0,0,1-1.464,1.55h-15.2a0.728,0.728,0,0,1-.725-0.72v-11.43c0-.44,1.252-1.84,2-2.67C663.33,2737.14,665.3,2734.94,665.875,2732.41Zm-12.7,7.32a3.2,3.2,0,0,0-3.2,3.18V2753a3.2,3.2,0,0,0,6.4,0v-10.09A3.2,3.2,0,0,0,653.175,2739.73Zm-0.731,3.18a0.731,0.731,0,0,1,1.461,0V2753a0.731,0.731,0,0,1-1.461,0v-10.09Z" transform="translate(-649.969 -2725)"/>
</svg>
